<svg width="57" height="56" viewBox="0 0 57 56" fill="none" xmlns="http://www.w3.org/2000/svg">
<path d="M0.333496 8C0.333496 3.58172 3.91522 0 8.3335 0H40.3335C44.7518 0 48.3335 3.58172 48.3335 8V40C48.3335 44.4183 44.7518 48 40.3335 48H8.3335C3.91522 48 0.333496 44.4183 0.333496 40V8Z" fill="white"/>
<path d="M20.3334 37.3337V24.0003H28.3334V37.3337M10.3334 24.7191L38.3707 34.321M38.3334 24.7191L10.2961 34.321M12.3334 20.0003L24.3334 10.667L36.3334 20.0003V34.667C36.3334 35.3742 36.0525 36.0525 35.5524 36.5526C35.0523 37.0527 34.374 37.3337 33.6667 37.3337H15.0001C14.2928 37.3337 13.6146 37.0527 13.1145 36.5526C12.6144 36.0525 12.3334 35.3742 12.3334 34.667V20.0003Z" stroke="#FA9500" stroke-width="2" stroke-linecap="round"/>
<path d="M32.8335 44C32.8335 37.6487 37.9822 32.5 44.3335 32.5C50.6848 32.5 55.8335 37.6487 55.8335 44C55.8335 50.3513 50.6848 55.5 44.3335 55.5C37.9822 55.5 32.8335 50.3513 32.8335 44Z" fill="white"/>
<path d="M32.8335 44C32.8335 37.6487 37.9822 32.5 44.3335 32.5C50.6848 32.5 55.8335 37.6487 55.8335 44C55.8335 50.3513 50.6848 55.5 44.3335 55.5C37.9822 55.5 32.8335 50.3513 32.8335 44Z" stroke="#EF4444"/>
<path d="M50.3335 38L38.3335 50M38.3335 38L50.3335 50" stroke="#EF4444" stroke-width="2" stroke-linecap="round" stroke-linejoin="round"/>
</svg>
