<svg width="57" height="56" viewBox="0 0 57 56" fill="none" xmlns="http://www.w3.org/2000/svg">
<path d="M0.666748 8C0.666748 3.58172 4.24847 0 8.66675 0H40.6667C45.085 0 48.6667 3.58172 48.6667 8V40C48.6667 44.4183 45.085 48 40.6667 48H8.66675C4.24847 48 0.666748 44.4183 0.666748 40V8Z" fill="white"/>
<path d="M24.6667 20V26.6667" stroke="#FA9500" stroke-width="2" stroke-linecap="round" stroke-linejoin="round"/>
<path d="M24.6668 36.547H16.5868C11.9602 36.547 10.0268 33.2404 12.2668 29.2004L16.4268 21.707L20.3468 14.667C22.7202 10.387 26.6135 10.387 28.9868 14.667L32.9068 21.7204L37.0668 29.2137C39.3068 33.2537 37.3602 36.5604 32.7468 36.5604H24.6668V36.547Z" stroke="#FA9500" stroke-width="2" stroke-linecap="round" stroke-linejoin="round"/>
<path d="M24.6594 30.667H24.6714" stroke="#FA9500" stroke-width="2" stroke-linecap="round" stroke-linejoin="round"/>
<path d="M33.1667 44C33.1667 37.6487 38.3155 32.5 44.6667 32.5C51.018 32.5 56.1667 37.6487 56.1667 44C56.1667 50.3513 51.018 55.5 44.6667 55.5C38.3155 55.5 33.1667 50.3513 33.1667 44Z" fill="white"/>
<path d="M33.1667 44C33.1667 37.6487 38.3155 32.5 44.6667 32.5C51.018 32.5 56.1667 37.6487 56.1667 44C56.1667 50.3513 51.018 55.5 44.6667 55.5C38.3155 55.5 33.1667 50.3513 33.1667 44Z" stroke="#EF4444"/>
<path d="M50.6667 38L38.6667 50M38.6667 38L50.6667 50" stroke="#EF4444" stroke-width="2" stroke-linecap="round" stroke-linejoin="round"/>
</svg>
