<svg width="57" height="56" viewBox="0 0 57 56" fill="none" xmlns="http://www.w3.org/2000/svg">
<path d="M0.666748 8C0.666748 3.58172 4.24847 0 8.66675 0H40.6667C45.085 0 48.6667 3.58172 48.6667 8V40C48.6667 44.4183 45.085 48 40.6667 48H8.66675C4.24847 48 0.666748 44.4183 0.666748 40V8Z" fill="white"/>
<path d="M15.3334 19.9997V30.6663M21.3334 19.9997V30.6663M28.0001 19.9997V30.6663M34.0001 19.9997V30.6663M12.6667 32.7997V33.8663C12.6667 34.6131 12.6667 34.9865 12.8121 35.2717C12.9399 35.5226 13.1439 35.7266 13.3948 35.8543C13.68 35.9997 14.0533 35.9997 14.8001 35.9997H34.5334C35.2802 35.9997 35.6535 35.9997 35.9387 35.8543C36.1897 35.7266 36.3935 35.5226 36.5214 35.2717C36.6667 34.9865 36.6667 34.6131 36.6667 33.8663V32.7997C36.6667 32.053 36.6667 31.6795 36.5214 31.3943C36.3935 31.1435 36.1897 30.9395 35.9387 30.8117C35.6535 30.6663 35.2802 30.6663 34.5334 30.6663H14.8001C14.0533 30.6663 13.68 30.6663 13.3948 30.8117C13.1439 30.9395 12.9399 31.1435 12.8121 31.3943C12.6667 31.6795 12.6667 32.053 12.6667 32.7997ZM24.2039 12.1025L14.3373 14.2951C13.7412 14.4276 13.4432 14.4938 13.2207 14.6541C13.0245 14.7955 12.8704 14.9876 12.7749 15.2098C12.6667 15.4617 12.6667 15.767 12.6667 16.3777V17.8664C12.6667 18.6131 12.6667 18.9865 12.8121 19.2717C12.9399 19.5226 13.1439 19.7265 13.3948 19.8544C13.68 19.9997 14.0533 19.9997 14.8001 19.9997H34.5334C35.2802 19.9997 35.6535 19.9997 35.9387 19.8544C36.1897 19.7265 36.3935 19.5226 36.5214 19.2717C36.6667 18.9865 36.6667 18.6131 36.6667 17.8664V16.3777C36.6667 15.767 36.6667 15.4617 36.5585 15.2098C36.4631 14.9876 36.309 14.7955 36.1127 14.6541C35.8903 14.4938 35.5923 14.4276 34.9962 14.2951L25.1295 12.1025C24.9569 12.0642 24.8705 12.045 24.7833 12.0373C24.7057 12.0305 24.6278 12.0305 24.5502 12.0373C24.463 12.045 24.3766 12.0642 24.2039 12.1025Z" stroke="#FA9500" stroke-width="2" stroke-linecap="round" stroke-linejoin="round"/>
<path d="M33.1667 44C33.1667 37.6487 38.3155 32.5 44.6667 32.5C51.018 32.5 56.1667 37.6487 56.1667 44C56.1667 50.3513 51.018 55.5 44.6667 55.5C38.3155 55.5 33.1667 50.3513 33.1667 44Z" fill="white"/>
<path d="M33.1667 44C33.1667 37.6487 38.3155 32.5 44.6667 32.5C51.018 32.5 56.1667 37.6487 56.1667 44C56.1667 50.3513 51.018 55.5 44.6667 55.5C38.3155 55.5 33.1667 50.3513 33.1667 44Z" stroke="#EF4444"/>
<path d="M50.6667 38L38.6667 50M38.6667 38L50.6667 50" stroke="#EF4444" stroke-width="2" stroke-linecap="round" stroke-linejoin="round"/>
</svg>
