<svg width="57" height="56" viewBox="0 0 57 56" fill="none" xmlns="http://www.w3.org/2000/svg">
<path d="M0.333496 8C0.333496 3.58172 3.91522 0 8.3335 0H40.3335C44.7518 0 48.3335 3.58172 48.3335 8V40C48.3335 44.4183 44.7518 48 40.3335 48H8.3335C3.91522 48 0.333496 44.4183 0.333496 40V8Z" fill="white"/>
<path d="M33.3335 27L28.3335 32L20.3335 30L13.3335 25" stroke="#FA9500" stroke-width="2" stroke-linecap="round" stroke-linejoin="round"/>
<path d="M17.4185 16.8287L24.3335 15L31.2485 16.8287" stroke="#FA9500" stroke-width="2" stroke-linecap="round" stroke-linejoin="round"/>
<path d="M12.6298 15.5524L9.43984 21.9349C9.32128 22.1719 9.30169 22.4463 9.38537 22.6978C9.46905 22.9493 9.64914 23.1573 9.88609 23.2761L13.3336 24.9999L17.4186 16.8286L13.9723 15.1061C13.8549 15.0472 13.727 15.012 13.596 15.0026C13.4649 14.9931 13.3333 15.0096 13.2086 15.0511C13.0839 15.0925 12.9687 15.1581 12.8693 15.2441C12.77 15.3301 12.6887 15.4349 12.6298 15.5524Z" stroke="#FA9500" stroke-width="2" stroke-linecap="round" stroke-linejoin="round"/>
<path d="M35.3335 24.9999L38.781 23.2761C39.018 23.1573 39.1981 22.9493 39.2818 22.6978C39.3654 22.4463 39.3458 22.1719 39.2273 21.9349L36.0373 15.5524C35.9785 15.4349 35.8971 15.3301 35.7978 15.2441C35.6985 15.1581 35.5832 15.0925 35.4585 15.0511C35.3338 15.0096 35.2022 14.9931 35.0712 15.0026C34.9401 15.012 34.8122 15.0472 34.6948 15.1061L31.2485 16.8286L35.3335 24.9999Z" stroke="#FA9500" stroke-width="2" stroke-linecap="round" stroke-linejoin="round"/>
<path d="M31.3336 17H26.3336L20.6261 22.5363C20.52 22.6423 20.4391 22.7709 20.3894 22.9124C20.3397 23.054 20.3226 23.2049 20.3391 23.354C20.3557 23.5031 20.4056 23.6465 20.4851 23.7737C20.5647 23.9009 20.6718 24.0086 20.7986 24.0888C22.9873 25.4875 25.9586 25.3912 28.3336 23L33.3336 27L35.3336 25" stroke="#FA9500" stroke-width="2" stroke-linecap="round" stroke-linejoin="round"/>
<path d="M17.882 9.91877L31.5306 36.9367" stroke="#FA9500" stroke-width="2" stroke-linecap="round"/>
<path d="M32.8335 44C32.8335 37.6487 37.9822 32.5 44.3335 32.5C50.6848 32.5 55.8335 37.6487 55.8335 44C55.8335 50.3513 50.6848 55.5 44.3335 55.5C37.9822 55.5 32.8335 50.3513 32.8335 44Z" fill="white"/>
<path d="M32.8335 44C32.8335 37.6487 37.9822 32.5 44.3335 32.5C50.6848 32.5 55.8335 37.6487 55.8335 44C55.8335 50.3513 50.6848 55.5 44.3335 55.5C37.9822 55.5 32.8335 50.3513 32.8335 44Z" stroke="#EF4444"/>
<path d="M50.3335 38L38.3335 50M38.3335 38L50.3335 50" stroke="#EF4444" stroke-width="2" stroke-linecap="round" stroke-linejoin="round"/>
</svg>
